<?xml version="1.0" encoding="UTF-8" standalone="no"?>
<!-- Created with Inkscape (http://www.inkscape.org/) -->

<svg
   width="2168.6836mm"
   height="1945.1067mm"
   viewBox="0 0 2168.6836 1945.1067"
   version="1.1"
   id="svg5"
   xmlns="http://www.w3.org/2000/svg"
   xmlns:svg="http://www.w3.org/2000/svg">
  <defs
     id="defs2" />
  <g
     id="layer1"
     transform="translate(5589.3908,979.99942)">
    <path
       id="rect512"
       style="opacity:1;fill:#00d748;stroke-width:2.77875;stroke-linecap:round;stroke-linejoin:round"
       d="m -5589.3906,507.94928 1079.308,-35.23729 1089.3757,35.23729 v 457.15808 h -2168.6837 z" />
    <path
       id="path406"
       style="opacity:1;fill:#ffca00;fill-opacity:1;stroke-width:2.22829;stroke-linecap:round;stroke-linejoin:round"
       d="m -4304.1383,507.94928 h -149.4282 l -77.1627,-736.0794 v 0 0 z" />
    <g
       id="g4949"
       transform="translate(-918.35194,-7.1190073)">
      <path
         id="path345"
         style="fill:#ff3d57;fill-opacity:1;stroke-width:1.72165;stroke-linecap:round;stroke-linejoin:round"
         d="m -3220.9604,210.12267 -71.9472,55.33762 -318.5891,-488.65317 v 0 0 z" />
      <path
         id="rect6984"
         style="fill:#ff3d57;fill-opacity:1;stroke-width:1.72165;stroke-linecap:round;stroke-linejoin:round"
         d="m -3733.9296,-795.83214 89.9769,-11.95021 31.5797,582.48061 v 0 0 z" />
      <path
         id="path295"
         style="fill:#ff3d57;fill-opacity:1;stroke-width:1.72165;stroke-linecap:round;stroke-linejoin:round"
         d="m -3040.5152,-345.84209 11.9503,89.97689 -582.4807,31.57966 v 0 0 z" />
      <path
         id="path299"
         style="fill:#ff3d57;fill-opacity:1;stroke-width:1.72165;stroke-linecap:round;stroke-linejoin:round"
         d="m -4183.9196,-102.41772 -11.9502,-89.97689 582.4806,-31.57966 v 0 0 z" />
      <path
         id="path339"
         style="fill:#ff3d57;fill-opacity:1;stroke-width:1.72165;stroke-linecap:round;stroke-linejoin:round"
         d="m -3431.7721,-780.09465 83.8974,34.63926 -263.8916,520.23283 v 0 0 z" />
      <path
         id="path341"
         style="fill:#ff3d57;fill-opacity:1;stroke-width:1.72165;stroke-linecap:round;stroke-linejoin:round"
         d="m -3177.9648,-615.38687 55.3376,71.94717 -488.6532,318.58909 v 0 0 z" />
      <path
         id="path343"
         style="fill:#ff3d57;fill-opacity:1;stroke-width:1.72165;stroke-linecap:round;stroke-linejoin:round"
         d="m -3056.2526,-43.684624 -34.6393,83.897366 -520.2328,-263.891512 v 0 0 z" />
      <path
         id="path349"
         style="fill:#ff3d57;fill-opacity:1;stroke-width:1.72165;stroke-linecap:round;stroke-linejoin:round"
         d="m -4046.47,167.12706 -55.3376,-71.947178 488.6532,-318.589082 v 0 0 z" />
      <path
         id="path351"
         style="fill:#ff3d57;fill-opacity:1;stroke-width:1.72165;stroke-linecap:round;stroke-linejoin:round"
         d="m -4168.1821,-404.57518 34.6392,-83.89738 520.2329,263.89152 v 0 0 z" />
      <path
         id="path353"
         style="fill:#ff3d57;fill-opacity:1;stroke-width:1.72165;stroke-linecap:round;stroke-linejoin:round"
         d="m -4003.4744,-658.38247 71.9472,-55.33763 318.5891,488.65317 v 0 0 z" />
      <path
         id="path297"
         style="fill:#ff3d57;fill-opacity:1;stroke-width:1.72165;stroke-linecap:round;stroke-linejoin:round"
         d="m -3490.5052,347.57233 -89.9769,11.95021 -31.5797,-582.48061 v 0 0 z" />
      <path
         id="path347"
         style="fill:#ff3d57;fill-opacity:1;stroke-width:1.72165;stroke-linecap:round;stroke-linejoin:round"
         d="m -3792.6627,331.83485 -83.8973,-34.63927 263.8915,-520.23282 v 0 0 z" />
      <path
         id="circle6892"
         style="fill:#ff3d57;fill-opacity:1;stroke:none;stroke-width:25.1171;stroke-linecap:round;stroke-linejoin:round;stroke-opacity:1"
         d="m -3991.9418,-710.16864 a 615.47266,615.47266 0 0 0 -105.9492,863.93726 615.47266,615.47266 0 0 0 863.9373,105.94916 615.47266,615.47266 0 0 0 105.9491,-863.93727 615.47266,615.47266 0 0 0 -863.9372,-105.94915 z m 40.2967,51.56185 a 550.03198,550.03198 0 0 1 772.0787,94.68406 550.03198,550.03198 0 0 1 -94.6841,772.07866 550.03198,550.03198 0 0 1 -772.0786,-94.68406 550.03198,550.03198 0 0 1 94.684,-772.07866 z" />
      <circle
         style="fill:#000000;fill-opacity:1;stroke:none;stroke-width:1.85208;stroke-linecap:round;stroke-linejoin:round;stroke-opacity:1"
         id="path6152"
         cx="-3551.2651"
         cy="-698.93854"
         r="45.383671"
         transform="rotate(-7.5654154)" />
      <path
         id="circle2225"
         style="opacity:1;fill:#ff3d57;fill-opacity:1;stroke-width:3.19864;stroke-linecap:round;stroke-linejoin:round"
         d="m -2863.91,-226.6082 c -0.2946,37.75868 -3.7309,75.0912 -10.0506,111.73885 l -100.4076,-17.07485 c 5.2202,-31.21116 7.8123,-62.85208 7.5177,-94.664 z m -37.4003,219.3688349 c -11.8274,35.0194431 -26.2793,69.0954351 -43.0971,101.9692881 l -90.7498,-46.632473 c 14.698,-28.457909 27.2851,-57.8626661 37.5028,-87.955894 z M -3001.7001,189.48668 c -21.2911,30.21109 -44.6894,58.96146 -69.9364,85.99241 l -74.9689,-70.06709 c 22.1065,-23.63546 42.6197,-48.73514 61.2806,-75.04046 z m -150.9649,161.66873 c -28.6858,23.33373 -58.9615,44.68936 -90.5687,63.80851 l -53.065,-87.3787 c 27.4462,-16.74411 53.8163,-35.46961 78.8513,-55.91802 z m -189.1257,114.19718 c -34.0113,14.38727 -69.0954,26.27917 -104.9937,35.4173 l -25.0382,-98.5673 c 30.7169,-7.78354 60.8747,-18.06586 90.2149,-30.58837 z m -214.8722,54.31122 c -18.6334,1.68585 -37.4059,2.61849 -56.2849,2.7658 -18.8797,-0.14731 -37.6529,-1.08005 -56.2872,-2.76601 l 8.729,-101.86542 c 15.7884,1.2638 31.652,1.83821 47.5582,1.6909 15.9057,0.14731 31.7685,-0.4271 47.5564,-1.6908 z m -222.4505,-18.89453 c -35.8982,-9.13814 -70.9822,-21.03024 -104.9935,-35.41752 l 39.8173,-93.73826 c 29.3401,12.52251 59.4979,22.80493 90.2147,30.58857 z m -203.5504,-85.8066 c -31.6071,-19.11914 -61.8828,-40.47488 -90.5685,-63.80861 l 64.7826,-79.48811 c 25.035,20.44842 51.405,39.17402 78.8512,55.91823 z m -171.5968,-139.48524 c -25.2469,-27.03105 -48.6452,-55.78152 -69.9362,-85.99261 l 83.625,-59.11494 c 18.6608,26.30542 39.1738,51.40511 61.2804,75.04066 z M -4281.4892,94.727967 c -16.8177,-32.873956 -31.2695,-66.949948 -43.0968,-101.9693901 l 96.3442,-32.6187709 c 10.2176,30.0931249 22.8047,59.497985 37.5025,87.955894 z m -70.4462,-209.599477 c -6.3193,-36.64704 -9.7556,-73.97873 -10.0502,-111.73669 0,-7.2e-4 0,0 0,0 l 102.9405,3.1e-4 c 0,6.2e-4 0,0 0,0 -0.2946,31.8113 2.2975,63.4515 7.5175,94.66204 z m 8e-4,-223.47781 c 6.3196,-36.64766 15.5226,-72.61056 27.3501,-107.6299 l 96.344,32.61939 c -10.2178,30.09313 -18.0662,60.87451 -23.2865,92.08577 z m 70.4475,-209.59908 c 16.8179,-32.87386 36.0018,-64.54557 57.293,-94.75656 l 83.6245,59.11535 c -18.661,26.30532 -35.4698,53.81618 -50.1678,82.27399 z m 127.2296,-180.74875 c 25.2471,-27.03095 52.3429,-52.34259 81.0287,-75.67612 l 64.7822,79.48842 c -25.0352,20.44831 -48.7354,42.61954 -70.8422,66.25499 z m 171.5976,-139.48432 c 31.6071,-19.11894 64.5457,-36.00129 98.5572,-50.38846 l 39.8167,93.73847 c -29.3402,12.5224 -57.8628,27.2849 -85.3091,44.0288 z m 203.5509,-85.80536 c 35.8983,-9.1379 72.6107,-15.5221 109.8786,-18.8936 l 8.7282,101.86552 c -31.5762,2.5273 -62.8521,7.81206 -93.5689,15.59549 z m 222.4508,-18.893 c 37.2677,3.3719 73.98,9.7564 109.8783,18.8946 l -25.0389,98.56725 c -30.7168,-7.78384 -61.9926,-13.06881 -93.5688,-15.59641 z m 214.8716,54.31257 c 34.0113,14.38738 66.9498,31.27004 98.5568,50.38929 l -53.0656,87.37839 c -27.4461,-16.7442 -55.9686,-31.5069 -85.3087,-44.02951 z m 189.1251,114.19821 c 28.6856,23.33384 55.7812,48.64568 81.0281,75.67684 l -74.9694,70.06668 c -22.1064,-23.63566 -45.8066,-45.807 -70.8415,-66.25562 z m 150.964,161.66965 c 21.2909,30.2112 40.4746,61.88312 57.2922,94.75707 l -90.7501,46.63196 c -14.6978,-28.45791 -31.5063,-55.96897 -50.1671,-82.2744 z m 100.3886,196.72656 c 11.8272,35.01955 21.0298,70.98245 27.3492,107.63021 l -100.4079,17.07423 c -5.22,-31.21116 -13.068,-61.99274 -23.2856,-92.08598 z" />
    </g>
    <path
       id="path379"
       style="opacity:1;fill:#ffca00;fill-opacity:1;stroke-width:2.22829;stroke-linecap:round;stroke-linejoin:round"
       d="m -4603.6909,567.72121 -192.2992,21.88899 257.7143,-821.1414 v 0 0 z" />
  </g>
</svg>
